<svg width="183" height="48" viewBox="0 0 183 48" fill="none" xmlns="http://www.w3.org/2000/svg">
<g clip-path="url(#clip0_62_1040)">
<path d="M35.7355 14.752C33.672 13.1453 30.1038 13.1226 25.7067 16.257L23.4457 17.8637L18.0719 21.6983L14.1007 17.3602C13.6223 16.8548 12.9639 16.557 12.2672 16.5309C11.5706 16.5049 10.8915 16.7527 10.3765 17.221C9.86153 17.6893 9.55181 18.3405 9.51414 19.0343C9.47647 19.7281 9.71386 20.4088 10.1751 20.9298L15.737 27.0031C16.1756 27.4815 16.7748 27.7831 17.4214 27.851C18.068 27.9188 18.7172 27.7482 19.2461 27.3713C19.2461 27.3713 30.0595 18.6563 30.1186 18.6121C31.5346 17.4071 32.8955 16.8997 34.7844 17.3482C36.3145 17.7124 37.5666 18.9683 37.5895 20.2188C37.9562 17.9574 37.2496 15.933 35.7355 14.752Z" fill="#E53E6A"/>
<path d="M34.9081 19.2802C34.505 19.1463 32.9802 18.675 31.1142 20.2509L27.2182 23.3867L29.6485 22.4776C29.8749 22.3934 30.121 22.3774 30.3565 22.4315C30.5919 22.4856 30.8062 22.6074 30.9728 22.7818C31.1393 22.9562 31.2508 23.1756 31.2934 23.4126C31.336 23.6496 31.3078 23.8939 31.2123 24.115C30.0641 26.7528 28.0994 28.9554 25.6053 30.4008C23.1113 31.8462 20.2188 32.4586 17.3506 32.1485C11.1345 31.4911 6.09254 26.4983 5.39394 20.3058C5.06911 17.5437 5.61174 14.7492 6.94707 12.3073C8.2824 9.86539 10.3447 7.89629 12.8498 6.6713C15.355 5.44631 18.1796 5.02572 20.9346 5.4675C23.6896 5.90928 26.2393 7.19167 28.2325 9.13798C28.4788 9.38854 28.7726 9.58786 29.0968 9.72439C29.421 9.86093 29.7691 9.93195 30.1211 9.93334C30.4731 9.93472 30.8218 9.86646 31.1471 9.73249C31.4723 9.59852 31.7677 9.40152 32.016 9.15292C32.2643 8.90431 32.4605 8.60905 32.5935 8.28425C32.7264 7.95946 32.7932 7.6116 32.7902 7.26084C32.7872 6.91009 32.7143 6.56342 32.5758 6.24096C32.4373 5.91849 32.2359 5.62664 31.9834 5.38233C30.0512 3.48299 27.7284 2.02421 25.1754 1.10672C22.6223 0.189239 19.8999 -0.165095 17.1961 0.0681871C8.01097 0.8394 0.63412 8.34936 0.0403177 17.5209C-0.664991 28.4223 8.03247 37.5176 18.823 37.5176C22.177 37.516 25.4698 36.6216 28.3607 34.9268C31.2516 33.232 33.6358 30.7983 35.2668 27.8774C35.6025 27.3089 35.8944 26.7159 36.14 26.1033C37.2699 23.1028 37.2255 20.0501 34.9081 19.2802Z" fill="#E53E6A"/>
<path d="M118.767 4.18799C118.365 4.18799 117.978 4.34739 117.694 4.63113C117.409 4.91486 117.249 5.29969 117.249 5.70096V19.3405H98.2769V5.70096C98.2769 5.29969 98.117 4.91486 97.8323 4.63113C97.5476 4.34739 97.1614 4.18799 96.7588 4.18799C96.3562 4.18799 95.9701 4.34739 95.6854 4.63113C95.4007 4.91486 95.2407 5.29969 95.2407 5.70096V36.0046C95.2407 36.4058 95.4007 36.7907 95.6854 37.0744C95.9701 37.3581 96.3562 37.5175 96.7588 37.5175C97.1614 37.5175 97.5476 37.3581 97.8323 37.0744C98.117 36.7907 98.2769 36.4058 98.2769 36.0046V22.3664H117.249V36.0046C117.249 36.4058 117.409 36.7907 117.694 37.0744C117.978 37.3581 118.365 37.5175 118.767 37.5175C119.17 37.5175 119.556 37.3581 119.841 37.0744C120.125 36.7907 120.285 36.4058 120.285 36.0046V5.70096C120.285 5.29969 120.125 4.91486 119.841 4.63113C119.556 4.34739 119.17 4.18799 118.767 4.18799V4.18799Z" fill="#E53E6A"/>
<path d="M76.9377 10.3953C76.2329 10.3953 75.557 10.6743 75.0587 11.171C74.5603 11.6676 74.2804 12.3412 74.2804 13.0436V40.893C74.2805 41.1304 74.2338 41.3655 74.1427 41.5849C74.0516 41.8043 73.918 42.0036 73.7496 42.1715C73.5811 42.3394 73.3811 42.4725 73.161 42.5633C72.9409 42.6541 72.7049 42.7007 72.4667 42.7005H71.3705C70.6657 42.7005 69.9898 42.9796 69.4914 43.4762C68.9931 43.9729 68.7131 44.6465 68.7131 45.3489V45.3489C68.7131 46.0513 68.9931 46.7249 69.4914 47.2216C69.9898 47.7183 70.6657 47.9973 71.3705 47.9973H72.4667C73.4029 47.9982 74.3301 47.815 75.1951 47.4584C76.0602 47.1017 76.8462 46.5786 77.5082 45.9188C78.1702 45.2591 78.6951 44.4757 79.053 43.6136C79.4108 42.7514 79.5946 41.8274 79.5937 40.8943V13.045C79.5942 12.6971 79.5259 12.3525 79.3926 12.031C79.2594 11.7094 79.0638 11.4172 78.8171 11.1711C78.5704 10.925 78.2774 10.7298 77.9549 10.5967C77.6324 10.4635 77.2868 10.3951 76.9377 10.3953V10.3953Z" fill="#E53E6A"/>
<path d="M76.9379 6.76686C78.8128 6.76686 80.3327 5.25205 80.3327 3.38343C80.3327 1.51481 78.8128 0 76.9379 0C75.0629 0 73.543 1.51481 73.543 3.38343C73.543 5.25205 75.0629 6.76686 76.9379 6.76686Z" fill="#E53E6A"/>
<path d="M87.285 10.3953C86.5803 10.3953 85.9044 10.6743 85.406 11.171C84.9077 11.6676 84.6277 12.3412 84.6277 13.0436V34.8679C84.6277 35.5703 84.9077 36.2439 85.406 36.7406C85.9044 37.2372 86.5803 37.5163 87.285 37.5163V37.5163C87.9898 37.5163 88.6657 37.2372 89.164 36.7406C89.6624 36.2439 89.9424 35.5703 89.9424 34.8679V13.0436C89.9425 12.6958 89.8739 12.3513 89.7404 12.0299C89.607 11.7085 89.4112 11.4165 89.1644 11.1706C88.9176 10.9246 88.6246 10.7295 88.3021 10.5965C87.9797 10.4635 87.634 10.3951 87.285 10.3953Z" fill="#E53E6A"/>
<path d="M87.285 0C86.3846 0 85.5211 0.356468 84.8845 0.990984C84.2478 1.6255 83.8901 2.48609 83.8901 3.38343C83.8901 4.28077 84.2478 5.14136 84.8845 5.77588C85.5211 6.41039 86.3846 6.76686 87.285 6.76686C88.1854 6.76686 89.0489 6.41039 89.6856 5.77588C90.3222 5.14136 90.6799 4.28077 90.6799 3.38343C90.6799 2.48609 90.3222 1.6255 89.6856 0.990984C89.0489 0.356468 88.1854 0 87.285 0V0Z" fill="#E53E6A"/>
<path d="M182.914 22.4119C182.226 16.2007 177.2 11.1851 170.975 10.4836C168.695 10.2169 166.385 10.5301 164.26 11.3941C162.135 12.2581 160.264 13.6445 158.822 15.4241V5.70096C158.822 5.50227 158.783 5.30553 158.707 5.12197C158.63 4.93841 158.518 4.77162 158.377 4.63113C158.236 4.49063 158.069 4.37919 157.885 4.30316C157.701 4.22712 157.503 4.18799 157.304 4.18799C157.105 4.18799 156.907 4.22712 156.723 4.30316C156.539 4.37919 156.371 4.49063 156.231 4.63113C156.09 4.77162 155.978 4.93841 155.901 5.12197C155.825 5.30553 155.786 5.50227 155.786 5.70096V23.9557C155.787 25.8009 156.166 27.6265 156.9 29.3206C157.634 31.0148 158.707 32.5419 160.053 33.8084C161.4 35.075 162.991 36.0544 164.731 36.6867C166.47 37.3189 168.321 37.5908 170.169 37.4856C172.018 37.3804 173.825 36.9004 175.481 36.0749C177.137 35.2494 178.607 34.0958 179.8 32.6847C180.993 31.2737 181.884 29.6348 182.42 27.8684C182.955 26.102 183.123 24.2453 182.914 22.4119V22.4119ZM179.875 25.3294C179.618 27.2799 178.818 29.1198 177.567 30.6408C176.315 32.1617 174.661 33.3031 172.791 33.9358C170.922 34.5684 168.913 34.667 166.991 34.2204C165.068 33.7739 163.31 32.7999 161.914 31.4089C160.518 30.0178 159.541 28.2652 159.093 26.3493C158.645 24.4334 158.744 22.4307 159.378 20.568C160.013 18.7052 161.158 17.0567 162.685 15.8091C164.211 14.5614 166.057 13.7643 168.014 13.5082C169.62 13.3035 171.253 13.4683 172.785 13.99C174.318 14.5117 175.71 15.3764 176.855 16.5178C178.001 17.6591 178.868 19.0468 179.392 20.5742C179.915 22.1017 180.081 23.7283 179.875 25.3294V25.3294Z" fill="#E53E6A"/>
<path d="M149.316 10.3952C148.913 10.3952 148.527 10.5547 148.242 10.8384C147.958 11.1221 147.798 11.507 147.798 11.9082V24.4739C147.798 29.7104 143.767 34.2225 138.521 34.4796C137.199 34.5447 135.877 34.3415 134.636 33.8824C133.395 33.4232 132.26 32.7177 131.301 31.8086C130.341 30.8995 129.577 29.8056 129.055 28.5934C128.532 27.3812 128.262 26.0758 128.26 24.7564V11.9029C128.26 11.5016 128.1 11.1168 127.815 10.833C127.531 10.5493 127.145 10.3899 126.742 10.3899C126.339 10.3899 125.953 10.5493 125.669 10.833C125.384 11.1168 125.224 11.5016 125.224 11.9029V24.7564C125.223 27.3702 126.027 29.9213 127.529 32.0643C129.031 34.2073 131.156 35.8388 133.619 36.7379C136.082 37.6371 138.762 37.7605 141.297 37.0915C143.832 36.4225 146.1 34.9933 147.794 32.9974V36.0046C147.794 36.2033 147.833 36.4 147.909 36.5836C147.986 36.7672 148.097 36.934 148.238 37.0744C148.379 37.2149 148.547 37.3264 148.731 37.4024C148.915 37.4785 149.112 37.5176 149.312 37.5176C149.511 37.5176 149.709 37.4785 149.893 37.4024C150.077 37.3264 150.244 37.2149 150.385 37.0744C150.526 36.934 150.638 36.7672 150.714 36.5836C150.791 36.4 150.83 36.2033 150.83 36.0046V11.9042C150.829 11.5042 150.669 11.1208 150.386 10.838C150.102 10.5552 149.717 10.396 149.316 10.3952V10.3952Z" fill="#E53E6A"/>
<path d="M68.7145 23.9571C68.7257 20.8809 67.6909 17.8915 65.7789 15.4765C63.8669 13.0614 61.1904 11.3631 58.1858 10.6584C55.1812 9.95364 52.0256 10.2841 49.2336 11.5958C46.4415 12.9076 44.1777 15.1232 42.8111 17.8816C41.4445 20.64 41.0558 23.7784 41.7083 26.7851C42.3608 29.7919 44.0161 32.4897 46.4043 34.4388C48.7924 36.3878 51.7726 37.4731 54.859 37.5177C57.9454 37.5624 60.9559 36.5637 63.3998 34.6845V34.8706C63.3998 35.573 63.6798 36.2466 64.1781 36.7433C64.6765 37.24 65.3524 37.519 66.0572 37.519C66.7619 37.519 67.4378 37.24 67.9362 36.7433C68.4345 36.2466 68.7145 35.573 68.7145 34.8706V23.9571ZM55.1067 32.2222C53.4665 32.2222 51.8631 31.7375 50.4994 30.8293C49.1356 29.9211 48.0726 28.6303 47.4449 27.1201C46.8173 25.6098 46.653 23.948 46.973 22.3447C47.293 20.7414 48.0828 19.2687 49.2427 18.1128C50.4025 16.9569 51.8801 16.1698 53.4888 15.8508C55.0975 15.5319 56.765 15.6956 58.2804 16.3212C59.7957 16.9467 61.0909 18.0061 62.0022 19.3653C62.9135 20.7245 63.3998 22.3225 63.3998 23.9571C63.397 26.1483 62.5223 28.2489 60.9677 29.7983C59.4131 31.3477 57.3053 32.2194 55.1067 32.2222Z" fill="#E53E6A"/>
</g>
<defs>
<clipPath id="clip0_62_1040">
<rect width="183" height="48" fill="white"/>
</clipPath>
</defs>
</svg>
